<svg width="16" height="16" viewBox="0 0 16 16" fill="none" xmlns="http://www.w3.org/2000/svg">
<mask id="path-1-outside-1_13310_32151" maskUnits="userSpaceOnUse" x="0.638672" y="0.347656" width="15" height="15" fill="black">
<rect fill="white" x="0.638672" y="0.347656" width="15" height="15"/>
<path fill-rule="evenodd" clip-rule="evenodd" d="M2.63867 7.72363C5.60774 7.72363 8.01465 5.31673 8.01465 2.34766C8.01465 5.31673 10.4216 7.72363 13.3906 7.72363C10.4216 7.72363 8.01465 10.1305 8.01465 13.0996C8.01465 10.1305 5.60774 7.72363 2.63867 7.72363Z"/>
</mask>
<path fill-rule="evenodd" clip-rule="evenodd" d="M2.63867 7.72363C5.60774 7.72363 8.01465 5.31673 8.01465 2.34766C8.01465 5.31673 10.4216 7.72363 13.3906 7.72363C10.4216 7.72363 8.01465 10.1305 8.01465 13.0996C8.01465 10.1305 5.60774 7.72363 2.63867 7.72363Z" fill="white"/>
<path d="M10.0146 2.34766C10.0146 1.24309 9.11922 0.347656 8.01465 0.347656C6.91008 0.347656 6.01465 1.24309 6.01465 2.34766H10.0146ZM2.63867 5.72363C1.5341 5.72363 0.638672 6.61906 0.638672 7.72363C0.638672 8.8282 1.5341 9.72363 2.63867 9.72363V5.72363ZM13.3906 9.72363C14.4952 9.72363 15.3906 8.8282 15.3906 7.72363C15.3906 6.61906 14.4952 5.72363 13.3906 5.72363V9.72363ZM6.01465 13.0996C6.01465 14.2042 6.91008 15.0996 8.01465 15.0996C9.11922 15.0996 10.0146 14.2042 10.0146 13.0996H6.01465ZM6.01465 2.34766C6.01465 4.21216 4.50317 5.72363 2.63867 5.72363V9.72363C6.71231 9.72363 10.0146 6.4213 10.0146 2.34766H6.01465ZM13.3906 5.72363C11.5261 5.72363 10.0146 4.21216 10.0146 2.34766H6.01465C6.01465 6.4213 9.31699 9.72363 13.3906 9.72363V5.72363ZM10.0146 13.0996C10.0146 11.2351 11.5261 9.72363 13.3906 9.72363V5.72363C9.31699 5.72363 6.01465 9.02597 6.01465 13.0996H10.0146ZM2.63867 9.72363C4.50317 9.72363 6.01465 11.2351 6.01465 13.0996H10.0146C10.0146 9.02597 6.71231 5.72363 2.63867 5.72363V9.72363Z" fill="#FFDCDA" mask="url(#path-1-outside-1_13310_32151)"/>
</svg>
